<svg width="98" height="98" viewBox="0 0 98 98" fill="none" xmlns="http://www.w3.org/2000/svg">
<path fill-rule="evenodd" clip-rule="evenodd" d="M21.777 8.2619C29.8351 2.87772 39.3087 0.00392273 49 0.00392273C61.9956 0.00392273 74.4589 5.16639 83.6482 14.3557C92.8375 23.545 98 36.0081 98 49.0038C98 58.6951 95.1262 68.1688 89.7418 76.2268C84.3577 84.2847 76.705 90.5653 67.7515 94.2741C58.798 97.9825 48.9456 98.9531 39.4406 97.0625C29.9355 95.1715 21.2045 90.5047 14.3518 83.6519C7.49901 76.7992 2.83222 68.0684 0.941544 58.5633C-0.949132 49.0582 0.0212316 39.2061 3.72991 30.2524C7.43862 21.2988 13.7191 13.6461 21.777 8.2619ZM51.0688 62.7239H75.6957V58.9126H51.0688V62.7239ZM71.903 35.1568C70.9955 29.2224 72.6834 27.0083 72.6834 27.0083L75.9135 23.0521L72.2838 24.0684C71.4193 22.6704 70.1056 21.6074 68.5579 21.0533C67.0102 20.4991 65.3205 20.4866 63.7649 21.0178C62.2092 21.549 60.88 22.5924 59.9946 23.9774C59.1093 25.3623 58.7201 27.0068 58.8908 28.6417L19.4911 77.2242C19.4911 77.2242 19.6544 77.9319 20.2533 77.6234C20.8807 77.2802 22.4502 75.6937 27.1626 70.93C29.6747 68.3906 33.08 64.9483 37.7118 60.3103C42.2126 55.8094 49.7077 56.1905 49.7077 56.1905H57.3843C67.7286 56.1905 73.5725 46.2816 71.903 35.1568ZM65.066 24.8001C65.3876 24.5889 65.7647 24.4781 66.1497 24.4817C66.6615 24.4865 67.1507 24.6932 67.5108 25.0568C67.8712 25.4205 68.0731 25.9117 68.0731 26.4236C68.0731 26.8084 67.9588 27.1846 67.7445 27.5043C67.5305 27.824 67.2262 28.0728 66.8702 28.2193C66.5143 28.3657 66.123 28.4031 65.746 28.3267C65.3686 28.2503 65.0227 28.0635 64.7519 27.7901C64.4812 27.5167 64.2977 27.169 64.2249 26.7912C64.1519 26.4133 64.1931 26.0223 64.3427 25.6678C64.4926 25.3133 64.7443 25.0113 65.066 24.8001Z" fill="white"/>
</svg>
