<svg width="21" height="20" viewBox="0 0 21 20" fill="none" xmlns="http://www.w3.org/2000/svg">
<path d="M2.55664 2.53906C2.55664 2.26292 2.7805 2.03906 3.05664 2.03906H18.0566C18.3328 2.03906 18.5566 2.26292 18.5566 2.53906V4.53906C18.5566 4.8152 18.3328 5.03906 18.0566 5.03906C17.7805 5.03906 17.5566 4.8152 17.5566 4.53906V3.03906H11.0566L11.0566 17.0391H13.6816C13.9578 17.0391 14.1816 17.2629 14.1816 17.5391C14.1816 17.8152 13.9578 18.0391 13.6816 18.0391H7.43164C7.1555 18.0391 6.93164 17.8152 6.93164 17.5391C6.93164 17.2629 7.1555 17.0391 7.43164 17.0391H10.0566L10.0566 3.03906H3.55664L3.55664 4.53906C3.55664 4.8152 3.33278 5.03906 3.05664 5.03906C2.7805 5.03906 2.55664 4.8152 2.55664 4.53906V2.53906Z" fill="#333E48"/>
</svg>
