<svg width="20" height="20" viewBox="0 0 20 20" fill="none" xmlns="http://www.w3.org/2000/svg">
<path d="M1.55664 13.9996V12.7006H3.06315V8.69412H1.76406V7.70069C2.1425 7.62792 2.46273 7.54058 2.72473 7.43869C2.98673 7.3368 3.24146 7.21308 3.4889 7.06752H4.66791V12.7006H5.967V13.9996H1.55664Z" fill="#333E48"/>
<path d="M6.96392 13.9996V13.0826C7.40786 12.6678 7.81178 12.2821 8.17567 11.9255C8.54684 11.5616 8.86343 11.2232 9.12543 10.9102C9.39471 10.59 9.60213 10.2952 9.74768 10.026C9.90052 9.7494 9.97693 9.4874 9.97693 9.23995C9.97693 8.8979 9.8896 8.63953 9.71493 8.46487C9.54027 8.28292 9.3001 8.19195 8.99443 8.19195C8.73971 8.19195 8.51409 8.26472 8.31759 8.41028C8.12109 8.54856 7.93551 8.71231 7.76084 8.90153L6.8875 8.03911C7.22956 7.67522 7.57889 7.4023 7.93551 7.22036C8.29212 7.03114 8.71787 6.93652 9.21276 6.93652C9.55482 6.93652 9.86413 6.99111 10.1407 7.10027C10.4245 7.20216 10.6683 7.35136 10.8721 7.54786C11.0759 7.73708 11.2324 7.96633 11.3415 8.23561C11.4507 8.50489 11.5053 8.80692 11.5053 9.1417C11.5053 9.43282 11.4434 9.73121 11.3197 10.0369C11.196 10.3353 11.0286 10.6373 10.8175 10.943C10.6137 11.2414 10.3772 11.5434 10.1079 11.8491C9.84593 12.1474 9.57302 12.4422 9.28918 12.7333C9.46385 12.7115 9.65671 12.6933 9.86777 12.6787C10.0861 12.6569 10.279 12.646 10.4464 12.646H11.8437V13.9996H6.96392Z" fill="#333E48"/>
<path d="M14.9803 14.1306C14.4126 14.1306 13.9323 14.0433 13.5393 13.8686C13.1463 13.6867 12.8224 13.4465 12.5677 13.1481L13.31 12.1329C13.5211 12.3367 13.7503 12.5041 13.9978 12.6351C14.2525 12.7661 14.5291 12.8316 14.8275 12.8316C15.1695 12.8316 15.4424 12.7624 15.6462 12.6241C15.85 12.4786 15.9519 12.2748 15.9519 12.0128C15.9519 11.86 15.9228 11.7217 15.8645 11.598C15.8136 11.4742 15.719 11.3724 15.5807 11.2923C15.4424 11.205 15.2532 11.1395 15.013 11.0958C14.7729 11.0449 14.4636 11.0194 14.0851 11.0194V9.88404C14.3981 9.88404 14.6564 9.86221 14.8602 9.81854C15.0713 9.77487 15.2387 9.71301 15.3624 9.63296C15.4934 9.54562 15.5844 9.44737 15.6353 9.3382C15.6935 9.22176 15.7226 9.0944 15.7226 8.95612C15.7226 8.71595 15.6499 8.53037 15.5043 8.39937C15.3587 8.26109 15.1477 8.19195 14.8711 8.19195C14.6237 8.19195 14.3981 8.24653 14.1943 8.3557C13.9978 8.46486 13.7904 8.61406 13.572 8.80328L12.7642 7.82078C13.0844 7.54422 13.4192 7.32953 13.7685 7.17669C14.1251 7.01658 14.5182 6.93652 14.9475 6.93652C15.3042 6.93652 15.628 6.98019 15.9191 7.06752C16.2175 7.14758 16.4686 7.2713 16.6724 7.43869C16.8834 7.5988 17.0472 7.79531 17.1636 8.0282C17.2801 8.26109 17.3383 8.53037 17.3383 8.83603C17.3383 9.19993 17.2364 9.50923 17.0326 9.76396C16.8361 10.0114 16.5523 10.2152 16.1811 10.3753V10.419C16.5814 10.5354 16.9089 10.7355 17.1636 11.0194C17.4256 11.2959 17.5566 11.6598 17.5566 12.1111C17.5566 12.4313 17.4875 12.7188 17.3492 12.9735C17.2109 13.2209 17.0254 13.432 16.7925 13.6066C16.5596 13.774 16.2867 13.905 15.9737 13.9996C15.6608 14.087 15.3296 14.1306 14.9803 14.1306Z" fill="#333E48"/>
</svg>
